/* XPM */
static char *ad7fba14a2af4974b0490bf177358da2jv5oSLt0GxGtZU2b[] = {
/* columns rows colors chars-per-pixel */
"30 30 43 1 ",
"  c #777777",
". c #7B7B7B",
"X c #7C7C7C",
"o c gray49",
"O c #7E7E7E",
"+ c gray50",
"@ c #808080",
"# c #818181",
"$ c gray51",
"% c #838383",
"& c #848484",
"* c gray52",
"= c #868686",
"- c gray53",
"; c #888888",
": c #898989",
"> c gray54",
", c #8B8B8B",
"< c gray55",
"1 c #8D8D8D",
"2 c #8E8E8E",
"3 c gray56",
"4 c #909090",
"5 c gray57",
"6 c #929292",
"7 c #939393",
"8 c gray58",
"9 c #959595",
"0 c gray59",
"q c #979797",
"w c #989898",
"e c gray60",
"r c #9A9A9A",
"t c #9B9B9B",
"y c gray61",
"u c #9D9D9D",
"i c gray62",
"p c #9F9F9F",
"a c #A0A0A0",
"s c gray63",
"d c #A2A2A2",
"f c #A7A7A7",
"g c gray66",
/* pixels */
"22#2;#9;;;;595e5295;2=9=;;;2#=",
";=#;##2##==2;=;=#2;==X;=;;##X;",
"5299;25;;;=22;;;=;;2;;299e2;2e",
";5e9=2925;=2e922;=;;;22e=55==2",
"#552##522;=;95;25#;#2;;2X29===",
"5fp955pp5995995ep29;e999;5e552",
"=e5=;2;5#25=;;=52;2#=;;=#=5;;=",
";99=5e;9;59;25;99pp5222==;e92#",
";X#X;;=;#;#;==;#=#;#25;;#= ;=#",
"=#=#;;=;=2=22;5;=2==2=;#=;X;;=",
";22592552e5ps5pe595592529p5999",
"X=#=;=;=#2=5e#2;==2#==#=;5;;;=",
"=2#;522;25;9p;5;2;5=;;=2;5522;",
"=;=;;2;;52;55;5;55;=2=2;;2522;",
"=2;;=;#;5=;2==2;22##2=2;222;52",
"9pse252e9=59#2229;2=9e9ep992ee",
";;52;5X52#;2#;#;5X;#22;29#2;;2",
"52529e=522e9;e9ep25;5525529e2p",
"9;=.25#52=22#;=2;#=#22;5;595=5",
"p5;#992p9229592e5552995e9pg9ep",
";==#5=X;===##;;;#;;#==#;=55#=;",
";;2;2=#;#;==###2#;==###=X2==#;",
"5255;259;2;9922p9e55;2;==529es",
"==;2=222;5=;22===;=;=2;###==2=",
"2#2;=e=525;;92=#;;=2255###===;",
"9599292999229525529529522;5229",
"5529####2;====;2;#2##2====;;=2",
"ee9p=;;;9599559ee25;2e52559929",
";#=2#2#;2#;;=;;252;;;;;#;;25#;",
"5#959s2sp;55;9e9eges92e255ep;9"
};
