/* XPM */
static char *_13050042a6543cae8dfe6fd7d05386ac7Qj1BVnQXktwYqv[] = {
/* columns rows colors chars-per-pixel */
"40 40 52 1 ",
"  c black",
". c #010101",
"X c #020202",
"o c gray1",
"O c #040404",
"+ c gray2",
"@ c #060606",
"# c #070707",
"$ c #111111",
"% c #131313",
"& c gray8",
"* c #161616",
"= c gray9",
"- c #181818",
"; c #1B1B1B",
": c gray11",
"> c #1D1D1D",
", c #282828",
"< c gray16",
"1 c gray43",
"2 c #6F6F6F",
"3 c gray44",
"4 c #727272",
"5 c #747474",
"6 c gray46",
"7 c #7B7B7B",
"8 c gray49",
"9 c gray50",
"0 c #808080",
"q c #8E8E8E",
"w c gray56",
"e c #A2A2A2",
"r c #AEAEAE",
"t c #AFAFAF",
"y c gray69",
"u c gray71",
"i c gray73",
"p c #BBBBBB",
"a c #BCBCBC",
"s c gray74",
"d c #D2D2D2",
"f c LightGray",
"g c gray85",
"h c #F4F4F4",
"j c gray96",
"k c #F6F6F6",
"l c gray97",
"z c #F8F8F8",
"x c #F9F9F9",
"c c gray99",
"v c #FDFDFD",
"b c #FEFEFE",
/* pixels */
"                                        ",
"                                        ",
"                                        ",
"                                        ",
"                                        ",
"                                        ",
"                                        ",
"                                        ",
"                                        ",
"                                        ",
"                                        ",
"                                        ",
"                                        ",
"                                        ",
"              ,w&      &w,              ",
"             $dct&    &tcd$             ",
"             O0xcy&  &ycx0O             ",
"              O8lcu&$ucl8O              ",
"               O7lcppcl7O               ",
"                O7xccx7O                ",
"                 -gccg-                 ",
"                :acxxca-                ",
"               :pcl55lcp:               ",
"              :acl4  4lca:              ",
"              8cl4O  O1lc8              ",
"              $e1O     1e$              ",
"                                        ",
"                                        ",
"                                        ",
"                                        ",
"                                        ",
"                                        ",
"                                        ",
"                                        ",
"                                        ",
"                                        ",
"                                        ",
"                                        ",
"                                        ",
"                                        "
};
