/* XPM */
static char *Dont_panic[] = {
/* columns rows colors chars-per-pixel */
"64 64 180 2 ",
"   c #000000",
".  c #020D03",
"X  c #0D0E0A",
"o  c #090906",
"O  c #130F02",
"+  c #031505",
"@  c #051B06",
"#  c #12120E",
"$  c #181814",
"%  c #370D03",
"&  c #002304",
"*  c #012D06",
"=  c #07280B",
"-  c #04360A",
";  c #0C3F11",
":  c #113F16",
">  c #20201B",
",  c #37372D",
"<  c #3E3E33",
"1  c #4E1205",
"2  c #5E1706",
"3  c #691A07",
"4  c #73240F",
"5  c #034A0B",
"6  c #005C0B",
"7  c #01640D",
"8  c #006E0D",
"9  c #15670D",
"0  c #00710D",
"q  c #096815",
"w  c #047512",
"e  c #097A16",
"r  c #0D7D1A",
"t  c #077414",
"y  c #107D1C",
"u  c #11681B",
"i  c #1B4420",
"p  c #057E25",
"a  c #0A7B22",
"s  c #05772A",
"d  c #057A2B",
"f  c #047723",
"g  c #197B24",
"h  c #276E2E",
"j  c #49580C",
"k  c #6A4D0D",
"l  c #53601A",
"z  c #44443C",
"x  c #4B4C3D",
"c  c #504F41",
"v  c #535345",
"b  c #58584D",
"n  c #5C5C53",
"m  c #5C6153",
"M  c #666859",
"N  c #7B7B6C",
"B  c #767764",
"V  c #AE3A0E",
"C  c #B9370E",
"Z  c #C52F0C",
"A  c #C6300D",
"S  c #C8320E",
"D  c #CB3511",
"F  c #CF3A14",
"G  c #C93C18",
"H  c #D33C16",
"J  c #D23E18",
"K  c #B65726",
"L  c #98662B",
"P  c #D3431C",
"I  c #DC451C",
"U  c #DC491E",
"Y  c #D54C1E",
"T  c #E14A1F",
"R  c #DC4C24",
"E  c #D94C26",
"W  c #DC5A33",
"Q  c #E14D22",
"!  c #E05A32",
"~  c #DF6039",
"^  c #E3643D",
"/  c #E56B43",
"(  c #E5724A",
")  c #05861E",
"_  c #0F801B",
"`  c #068A1C",
"'  c #068F1A",
"]  c #11821E",
"[  c #07921B",
"{  c #08941D",
"}  c #058322",
"|  c #068922",
" . c #098D24",
".. c #05842C",
"X. c #068B2C",
"o. c #088426",
"O. c #158421",
"+. c #198926",
"@. c #1D8D29",
"#. c #1A8626",
"$. c #0A9224",
"%. c #0D952A",
"&. c #0E9A2C",
"*. c #0A9528",
"=. c #109C2E",
"-. c #068D31",
";. c #068730",
":. c #069433",
">. c #069A35",
",. c #079E38",
"<. c #119D32",
"1. c #22882D",
"2. c #22922E",
"3. c #269532",
"4. c #299435",
"5. c #299936",
"6. c #2D9D39",
"7. c #2B9739",
"8. c #308A3A",
"9. c #07A63B",
"0. c #14A235",
"q. c #15A339",
"w. c #32A23E",
"e. c #36A541",
"r. c #3AA746",
"t. c #3AA946",
"y. c #3EAD49",
"u. c #63985E",
"i. c #40AE4B",
"p. c #43A64E",
"a. c #43B24E",
"s. c #46B451",
"d. c #49B654",
"f. c #4AB956",
"g. c #4EBD59",
"h. c #50BF5B",
"j. c #50B158",
"k. c #6F9266",
"l. c #61A862",
"z. c #63B667",
"x. c #66B76B",
"c. c #52C15E",
"v. c #56C461",
"b. c #58C763",
"n. c #5BC966",
"m. c #5ECD69",
"M. c #61CF6C",
"N. c #64C66C",
"B. c #63D16E",
"V. c #76C57B",
"C. c #66D471",
"Z. c #68D773",
"A. c #6BD976",
"S. c #6EDC79",
"D. c #70DE7B",
"F. c #72E07D",
"G. c #8D927F",
"H. c #7FC381",
"J. c #76E481",
"K. c #79E783",
"L. c #7CEA86",
"P. c #7FEC89",
"I. c #969986",
"U. c #8BBF8C",
"Y. c #9BAF93",
"T. c #A8AA9A",
"R. c #A3B59A",
"E. c #ADB1A2",
"W. c #B5B7A9",
"Q. c #83C286",
"!. c #96C998",
"~. c #81EE8B",
"^. c #84F28F",
"/. c #86F491",
"(. c #8CF996",
"). c #8BF895",
"_. c #ABC9A8",
"`. c #C5C6BB",
"'. c #CACAC0",
"]. c None",
/* pixels */
"].].].].].].].].].].].].].].].].].].].].].].].].].].].].].].].].].].].].].].].].].].].].].].].].].].].].].].].].].].].].].].].].",
"].].].].].].].].].].].].].].].].].].].].].].].].].].].].].].].].].].].].].].].].].].].].].].].].].].].].].].].].].].].].].].].].",
"].].].].].].].].].].].].].].].].].].].].].].].].].].].].].].].].].].].].].].].].].].].].].].].].].].].].].].].].].].].].].].].].",
"].].].].].].].].].].].].].].].].].].].].].].].].].].].].].].].].].].].].].].].].].].].].].].].].].].].].].].].].].].].].].].].].",
"].].].].].].].].].].].].].].].].].].].].].].].].].].].].].].].].].].].].].].].].].].].].].].].].].].].].].].].].].].].].].].].].",
"].].].].].].].].].].].].].].].].].].].].].].].].].].].].].].].].].].].].].].].].].].].].].].].].].].].].].].].].].].].].].].].].",
"].].].].].].].].].].].].].].].].].].].].].].].].].].].].].].].].].].].].].].].].].].].].].].].].].].].].].].].].].].].].].].].].",
"].].].].].].].].].].].].].].;.].].].].].].].].].].].].].].].].].].].].].].].].].].].].].].].].].].].].].].].].].].].].].].].].].",
"].].].].].].].].].].].].].,.>.].-.;.].].].].].].].].].].].].].].].].].].].].].].].].].].].].].].].].].].].].].].].].].].].].].].",
"].].].].].].].].]...].].-.,.].-.,.].]...].].].].].].].].].].].].].].].].].].].].].].].].].].].].].].].].].].].].].].].].].].].].",
"].].].].].].].].].:.].]...X.].-.-.].:.:.].].].].].].].].].].].].].].].].].].].].].].].].].].].].].].].].].].].].].].].].].].].].",
"].].].].].].].].].o.].].} p p o.p ].>.-.].].].].].].].].].].].].].].].].].].].].].].].].].].].].].].].].].].].].].].].].].].].].",
"].].].].].].].].].p ].} ) ].} p ].p ..].].].].].].].].].].].].].].].].].].].].].].].].].].].].].].].].].].].].].].].].].].].].].",
"].].].].].].].].].) | ) ) ) ) } p p ].].].].].].].].].].@.3.3.4.7.].].].].].].].].].].].].].].].].].].].].].].].].].].].].].].].",
"].].].].].].].].]. .&.<.%.` ) ) } p ].].].].].].].+.@.3.3.5.6.6.e.e.e.e.e.].].].].].].].].].].].].].].].].].].].].].].].].].].].",
"].].].].].].].].| <.q.<.0.&.) ) | ].].].].].g +.@.2.3.5.6.6.e.t.e.t.t.t.y.y.t.].].].].].].].].].].].].].].].].].].].].].].].].].",
"].].].].].].].]. .<.<.[ $.0.$.) ].].].].].] +.@.@.5.6.6.e.e.y.y.y.a.a.s.s.s.a.a.i.].].].].].].].].].].].].].].].].].].].].].].].",
"].].].].].].].].| <.<.' [ =.$.` | >.>.].O.+.@.2.5.5.w.e.t.y.y.y.s.d.f.f.f.f.f.f.s.s.].].].].].].].].].].].].].].].].].].].].].].",
"].].].].].].].].| %.q.<.0.0. .) | o.o.O.+.@.2.5.6.w.e.y.y.s.s.f.g.c.c.c.c.c.c.h.g.g.d.].].].].].].].].].].].].].].].].].].].].].",
"].].].].].].].].].|  .&.&.` ` ].].e r O.+.2.3.5.w.e.y.y.s.f.g.c.v.v.b.n.n.n.b.b.v.c.h.f.].].].].].].].].].].].].].].].].].].].].",
"].].].].].].].].].| | ) ` ].].].].r ] +.@.3.5.6.e.y.y.s.f.g.v.v.n.m.M.B.B.M.M.m.n.b.v.h.d.].].].].].].].].].].].].].].].].].].].",
"].].].].].].].].].o.} ].].].].].e _ O.@.2.5.6.e.y.y.s.g.g.v.b.m.B.B.C.Z.A.Z.Z.C.M.m.n.v.h.d.].].].].].].].].].].].].].].].].].].",
"].].].].].].].].X.-.].].].].].].e ] +.@.3.5.w.e.y.y.d.g.v.b.m.B.Z.A.S.D.D.D.S.A.Z.B.m.n.v.g.].].].].].].].].].].].].].].].].].].",
"].].].].].].].].:.].].].].].].t r O.+.2.3.6.w.t.y.s.g.c.b.m.C.Z.S.F.J.J.K.J.J.D.S.Z.B.m.b.c.d.].].].].].].].].].].].].].].].].].",
"].].].].].].].:.-.].].].].].].t _ O.@.2.7.6.e.t.s.d.g.v.b.B.C.A.F.J.L.P.~.P.K.J.F.A.C.M.n.v.g.].].].].].].].].].].].].].].].].].",
"].].].].].].:.:.].].].].].].w e ] O.@.2.7.w.e.y.s.d.c.v.m.C.Z.F.J.L.~././.^.~.L.J.S.Z.B.n.v.g.].].].].].].].].].].].].].].].].].",
"].].].].].;.-.d ].].].].].].w e ] +.@.1.4.w.r.y.s.f.c.v.m.C.A.F.J.P./.).(.).^.P.J.D.A.B.m.v.h.d.].].].].].].].].].].].].].].].].",
"].].].]...-.d ].].].].].].].w e ] u = + @ h r.y.s.f.v.v.m.C.A.F.K.~./.).(./.^.L.J.D.Z.B.n.v.h.d.].].].].].].].].].].].].].].].].",
"].].].].d d d d ;.:.9.9.,.e w e q +     o M U.y.s.d.c.v.m.B.Z.F.J.P.^.^./.^.P.K.F.S.Z.M.n.c.g.d.].].].].].].].].].].].].].].].].",
"].].].].d d s d d d ;.-.:.d w e -       X B E.l.y.d.c.v.m.B.Z.S.F.J.K.P.~.P.K.J.D.A.C.m.b.c.g.s.].].].].].].].].].].].].].].].].",
"].].].].].].].].].d s d d f w t +         $ v I.x.s.g.c.b.m.C.Z.S.F.J.J.J.J.F.D.A.C.M.n.v.h.f.a.].].].].].].].].].].].].].].].].",
"].].].].].].].].].].].].].8 w 7 .           c `._.f.f.c.v.b.B.B.A.A.S.D.D.D.A.A.C.M.m.v.c.g.s.i.].].].].].].].:.-.].].].].].].].",
"].].].].].].].].].].].].].].w 7 .           $ B N u.d.g.c.c.n.B.B.C.C.C.A.C.C.B.m.n.v.c.g.f.s.y.].].].].].].;.9.].].-.].].].].].",
"].].].].].].].].].].].].].].8 8 +           o o , E.Q.j.c.c.c.c.n.m.M.M.M.N.V.H.z.h.c.g.f.a.y.e.].].].].].].X.;.].:.,.].].].].].",
"].].].].].].].].].].].].].].0 0 *               z `._.u.j.f.c.c.c.b.n.M.U.k.W.`.m i p.f.a.y.t.e.].].].].].p p ]...:.:.].].].].].",
"].].].].].].].].].].].].].].0 0 5               # n b v R.!.l.z.V.x.u.R.T.c M m $   i a.y.t.w.5.o.:.].].p } ].p ....].>.:.].].].",
"].].].].].].].].].].].].].].8 0 8 @                   < T.E.M G.`.I., v x X         . 8.t.e.6.].].X.X.].) } ) p p ]...:.].].].].",
"].].].].].].].].].].].].].].].0 0 5                   X < < # x N x o                 h w.6.7.].].} } ) ) ) ) ) ].p p p ].].].].",
"].].].].].].].].].].].].].].].8 0 8 *                         o X                   o 1.5.5.].].].| | %.%.` ` ) ) } o.].].].].].",
"].].].].].].].].].].].].].].].].0 0 8 &                                             : 3.3.2.].].].| <.0.0.<. .` ) } ].].].].].].",
"].].].].].].].].].].].].].].].].8 8 0 7 @                                         = g 3.@.].].].]. .0.&.{ =.<.| ) ].| :.-.].].].",
"].].].].].].].].].].].].].].].].].8 0 0 7 &                                     = g 2.#.].].].].].$.0.*.' [ 0.&.) } X.>.].].].].",
"].].].].].].].].].].].].].].].].].].8 0 0 8 - +                             o 5 g +.O.O.].].].].]. .&.$.' ' =.<.| } ].].].].].].",
"].].].].].].].].].].].].].].].].].].].0 0 0 0 6 * O 1 3 3 3 3 %         . = u O.] ] y ].].].].].].| ) ) ' ' `  .].].].].].].].].",
"].].].].].].].].].].].].].].].].].].].].8 0 0 0 0 9 k C P E J G 4 O * 5 q y _ a a a ].].].].].].].| | ) ` ` ].].].].].].].].].].",
"].].].].].].].].].].].].].].].].].].].].].].8 0 0 0 8 j G / ^ R ~ l w e e e t f d ;.].].].].].].X.o.].].].].].].].].].].].].].].",
"].].].].].].].].].].].].].].].].].].].].].].].].8 0 0 9 V W / R ^ L 0 w 0 0 ].].d -.:.].].].].:...].].].].].].].].].].].].].].].",
"].].].].].].].].].].].].].].].].].].].].].].].].].].0 9 V J Q U E K 9 ].].].].].d ..,.].].].>.;.].].].].].].].].].].].].].].].].",
"].].].].].].].].].].].].].].].].].].].].].].].].].].].].S H I T Y I ].].].].].].].d :.,.].].;.d ].].].].].].].].].].].].].].].].",
"].].].].].].].].].].].].].].].].].].].].].].].].].].].].A S I T Y I ].].].].].].].s d -.]...d ].].].].].].].].].].].].].].].].].",
"].].].].].].].].].].].].].].].].].].].].].].].].].].].].Z S J Q E U ].].].].].].].].s d d d d ].].].].].].].].].].].].].].].].].",
"].].].].].].].].].].].].].].].].].].].].].].].].].].].].Z Z H I U U I ].].].].].].].].d d d ].].].].].].].].].].].].].].].].].].",
"].].].].].].].].].].].].].].].].].].].].].].].].].].].].Z Z S J I T R P ].].].].].].].d s s ].].].].].].].].].].].].].].].].].].",
"].].].].].].].].].].].].].].].].].].].].].].].].].].].].Z Z Z H R R ! ! G ].].].].].].].d ].].].].].].].].].].].].].].].].].].].",
"].].].].].].].].].].].].].].].].].].].].].].].].].].].].].Z Z D E ^ ( W D ].].].].].].].].].].].].].].].].].].].].].].].].].].].",
"].].].].].].].].].].].].].].].].].].].].].].].].].].].].].].Z Z A F J D Z ].].].].].].].].].].].].].].].].].].].].].].].].].].].",
"].].].].].].].].].].].].].].].].].].].].].].].].].].].].].].].].Z Z S ].].].].].].].].].].].].].].].].].].].].].].].].].].].].].",
"].].].].].].].].].].].].].].].].].].].].].].].].].].].].].].].].].].].].].].].].].].].].].].].].].].].].].].].].].].].].].].].].",
"].].].].].].].].].].].].].].].].].].].].].].].].].].].].].].].].].].].].].].].].].].].].].].].].].].].].].].].].].].].].].].].].",
"].].].].].].].].].].].].].].].].].].].].].].].].].].].].].].].].].].].].].].].].].].].].].].].].].].].].].].].].].].].].].].].].",
"].].].].].].].].].].].].].].].].].].].].].].].].].].].].].].].].].].].].].].].].].].].].].].].].].].].].].].].].].].].].].].].].",
"].].].].].].].].].].].].].].].].].].].].].].].].].].].].].].].].].].].].].].].].].].].].].].].].].].].].].].].].].].].].].].].].",
"].].].].].].].].].].].].].].].].].].].].].].].].].].].].].].].].].].].].].].].].].].].].].].].].].].].].].].].].].].].].].].].].",
"].].].].].].].].].].].].].].].].].].].].].].].].].].].].].].].].].].].].].].].].].].].].].].].].].].].].].].].].].].].].].].].]."
};
